<?xml version="1.0" standalone="no"?>
<!DOCTYPE svg PUBLIC "-//W3C//DTD SVG 20010904//EN"
 "http://www.w3.org/TR/2001/REC-SVG-20010904/DTD/svg10.dtd">
<svg version="1.0" xmlns="http://www.w3.org/2000/svg"
 width="256.000000pt" height="256.000000pt" viewBox="0 0 256.000000 256.000000"
 preserveAspectRatio="xMidYMid meet">
<metadata>
Created by potrace 1.16, written by Peter Selinger 2001-2019
</metadata>
<g transform="translate(0.000000,256.000000) scale(0.100000,-0.100000)"
fill="#000000" stroke="none">
<path d="M934 1738 c-208 -308 -383 -572 -388 -585 -6 -14 -6 -26 0 -32 5 -5
151 -23 324 -41 173 -17 317 -33 318 -35 2 -2 -51 -167 -117 -367 -67 -200
-121 -369 -121 -375 0 -6 6 -16 14 -22 11 -9 25 0 69 46 124 131 990 1089 994
1101 3 7 1 18 -4 23 -6 6 -148 25 -316 42 -168 18 -309 36 -313 39 -3 4 93
161 215 348 121 188 221 345 221 350 0 5 -4 11 -9 14 -10 7 -436 56 -480 56
-26 0 -58 -44 -407 -562z"/>
</g>
</svg>
